REM DIRINDEX 1\8,1\2\11,1\3\12,1\3\14,1\5\15,1\5\16,1\6\17,1\6\18,1\4\19,1\4\20,1\4\21,1\4\22,1\7\23,1\7\24,1\7\25,1\2\9\26,1\2\9\27,1\2\10\28,1\2\10\29,1\2\10\30,1\2\10\31,1\2\10\32,1\3\13\33,1\3\13\34,1\3\13\35
REM DIRNAME folder01,folder02,folder03,folder04,folder05,folder06,folder07,folder08,folder09,folder10,folder11,folder12,folder13,folder14,folder15,folder16,folder17,folder18,folder19,folder20,folder21,folder22,folder23,folder24,folder25,folder26,folder27,folder28,folder29,folder30,folder31,folder32,folder33,folder34,folder35
TITLE ""
FILE "115 115_UNIT6_SET6.mp3" MP3
  TRACK 01 AUDIO
    TITLE "14:cjc123_2273"
    INDEX 01 00:00:00
  TRACK 02 AUDIO
    TITLE "0:"
    INDEX 01 00:02:69
  TRACK 03 AUDIO
    TITLE "33:cjc123_2274"
    INDEX 01 00:03:39
  TRACK 04 AUDIO
    TITLE "0:"
    INDEX 01 00:04:68
  TRACK 05 AUDIO
    TITLE "34:cjc123_2275"
    INDEX 01 00:05:14
  TRACK 06 AUDIO
    TITLE "0:"
    INDEX 01 00:06:51
  TRACK 07 AUDIO
    TITLE "35:cjc123_2276"
    INDEX 01 00:07:19
  TRACK 08 AUDIO
    TITLE "0:"
    INDEX 01 00:13:69
  TRACK 09 AUDIO
    TITLE "33:cjc123_2277"
    INDEX 01 00:14:53
  TRACK 10 AUDIO
    TITLE "0:"
    INDEX 01 00:16:02
  TRACK 11 AUDIO
    TITLE "34:cjc123_2278"
    INDEX 01 00:16:30
  TRACK 12 AUDIO
    TITLE "0:"
    INDEX 01 00:17:57
  TRACK 13 AUDIO
    TITLE "35:cjc123_2279"
    INDEX 01 00:18:31
  TRACK 14 AUDIO
    TITLE "0:"
    INDEX 01 00:23:69
  TRACK 15 AUDIO
    TITLE "33:cjc123_2280"
    INDEX 01 00:24:43
  TRACK 16 AUDIO
    TITLE "0:"
    INDEX 01 00:25:58
  TRACK 17 AUDIO
    TITLE "34:cjc123_2281"
    INDEX 01 00:26:13
  TRACK 18 AUDIO
    TITLE "0:"
    INDEX 01 00:27:24
  TRACK 19 AUDIO
    TITLE "35:cjc123_2282"
    INDEX 01 00:27:73
  TRACK 20 AUDIO
    TITLE "0:"
    INDEX 01 00:30:30
  TRACK 21 AUDIO
    TITLE "0:"
    INDEX 01 00:31:06
  TRACK 22 AUDIO
    TITLE "0:"
    INDEX 01 00:33:42
  TRACK 23 AUDIO
    TITLE "33:cjc123_2283"
    INDEX 01 00:34:26
  TRACK 24 AUDIO
    TITLE "0:"
    INDEX 01 00:35:27
  TRACK 25 AUDIO
    TITLE "34:cjc123_2284"
    INDEX 01 00:35:53
  TRACK 26 AUDIO
    TITLE "0:"
    INDEX 01 00:36:66
  TRACK 27 AUDIO
    TITLE "35:cjc123_2285"
    INDEX 01 00:37:40
  TRACK 28 AUDIO
    TITLE "0:"
    INDEX 01 00:41:53
  TRACK 29 AUDIO
    TITLE "33:cjc123_2286"
    INDEX 01 00:42:29
  TRACK 30 AUDIO
    TITLE "0:"
    INDEX 01 00:43:33
  TRACK 31 AUDIO
    TITLE "34:cjc123_2287"
    INDEX 01 00:43:39
  TRACK 32 AUDIO
    TITLE "0:"
    INDEX 01 00:44:30
  TRACK 33 AUDIO
    TITLE "35:cjc123_2288"
    INDEX 01 00:45:02
  TRACK 34 AUDIO
    TITLE "0:"
    INDEX 01 00:53:39
  TRACK 35 AUDIO
    TITLE "33:cjc123_2289"
    INDEX 01 00:54:15
  TRACK 36 AUDIO
    TITLE "0:"
    INDEX 01 00:55:24
  TRACK 37 AUDIO
    TITLE "34:cjc123_2290"
    INDEX 01 00:55:46
  TRACK 38 AUDIO
    TITLE "0:"
    INDEX 01 00:56:72
  TRACK 39 AUDIO
    TITLE "35:cjc123_2291"
    INDEX 01 00:57:46
  TRACK 40 AUDIO
    TITLE "0:"
    INDEX 01 01:03:65
  TRACK 41 AUDIO
    TITLE "33:cjc123_2292"
    INDEX 01 01:04:39
  TRACK 42 AUDIO
    TITLE "0:"
    INDEX 01 01:05:60
  TRACK 43 AUDIO
    TITLE "34:cjc123_2293"
    INDEX 01 01:06:10
  TRACK 44 AUDIO
    TITLE "0:"
    INDEX 01 01:07:27
  TRACK 45 AUDIO
    TITLE "35:cjc123_2294"
    INDEX 01 01:07:74
  TRACK 46 AUDIO
    TITLE "0:"
    INDEX 01 01:15:60
  TRACK 47 AUDIO
    TITLE "33:cjc123_2295"
    INDEX 01 01:16:42
  TRACK 48 AUDIO
    TITLE "0:"
    INDEX 01 01:17:41
  TRACK 49 AUDIO
    TITLE "34:cjc123_2296"
    INDEX 01 01:18:00
  TRACK 50 AUDIO
    TITLE "0:"
    INDEX 01 01:19:09
  TRACK 51 AUDIO
    TITLE "35:cjc123_2297"
    INDEX 01 01:19:56
  TRACK 52 AUDIO
    TITLE "0:"
    INDEX 01 01:23:54
  TRACK 53 AUDIO
    TITLE "33:cjc123_2298"
    INDEX 01 01:24:36
  TRACK 54 AUDIO
    TITLE "0:"
    INDEX 01 01:25:21
  TRACK 55 AUDIO
    TITLE "34:cjc123_2299"
    INDEX 01 01:25:53
  TRACK 56 AUDIO
    TITLE "0:"
    INDEX 01 01:26:42
  TRACK 57 AUDIO
    TITLE "35:cjc123_2300"
    INDEX 01 01:27:16
  TRACK 58 AUDIO
    TITLE "0:"
    INDEX 01 01:34:61
  TRACK 59 AUDIO
    TITLE "33:cjc123_2301"
    INDEX 01 01:35:33
  TRACK 60 AUDIO
    TITLE "0:"
    INDEX 01 01:36:39
  TRACK 61 AUDIO
    TITLE "34:cjc123_2302"
    INDEX 01 01:36:66
  TRACK 62 AUDIO
    TITLE "0:"
    INDEX 01 01:38:00
  TRACK 63 AUDIO
    TITLE "35:cjc123_2303"
    INDEX 01 01:38:55
  TRACK 64 AUDIO
    TITLE "0:"
    INDEX 01 01:45:02
  TRACK 65 AUDIO
    TITLE "33:cjc123_2304"
    INDEX 01 01:45:65
  TRACK 66 AUDIO
    TITLE "0:"
    INDEX 01 01:47:33
  TRACK 67 AUDIO
    TITLE "34:cjc123_2305"
    INDEX 01 01:47:62
  TRACK 68 AUDIO
    TITLE "0:"
    INDEX 01 01:49:06
  TRACK 69 AUDIO
    TITLE "35:cjc123_2306"
    INDEX 01 01:49:69
  TRACK 70 AUDIO
    TITLE "0:"
    INDEX 01 01:53:33
  TRACK 71 AUDIO
    TITLE "33:cjc123_2307"
    INDEX 01 01:54:09
  TRACK 72 AUDIO
    TITLE "0:"
    INDEX 01 01:55:63
  TRACK 73 AUDIO
    TITLE "34:cjc123_2308"
    INDEX 01 01:56:08
  TRACK 74 AUDIO
    TITLE "0:"
    INDEX 01 01:57:47
  TRACK 75 AUDIO
    TITLE "35:cjc123_2309"
    INDEX 01 01:58:15
  TRACK 76 AUDIO
    TITLE "0:"
    INDEX 01 02:03:12
  TRACK 77 AUDIO
    TITLE "33:cjc123_2310"
    INDEX 01 02:03:67
  TRACK 78 AUDIO
    TITLE "0:"
    INDEX 01 02:05:15
  TRACK 79 AUDIO
    TITLE "34:cjc123_2311"
    INDEX 01 02:05:42
  TRACK 80 AUDIO
    TITLE "0:"
    INDEX 01 02:06:55
  TRACK 81 AUDIO
    TITLE "35:cjc123_2312"
    INDEX 01 02:07:26
  TRACK 82 AUDIO
    TITLE "0:"
    INDEX 01 02:11:72
  TRACK 83 AUDIO
    TITLE "33:cjc123_2313"
    INDEX 01 02:12:48
  TRACK 84 AUDIO
    TITLE "0:"
    INDEX 01 02:13:69
  TRACK 85 AUDIO
    TITLE "34:cjc123_2314"
    INDEX 01 02:14:31
  TRACK 86 AUDIO
    TITLE "0:"
    INDEX 01 02:15:54
  TRACK 87 AUDIO
    TITLE "35:cjc123_2315"
    INDEX 01 02:16:28
  TRACK 88 AUDIO
    TITLE "0:"
    INDEX 01 02:22:58
  TRACK 89 AUDIO
    TITLE "33:cjc123_2316"
    INDEX 01 02:23:32
  TRACK 90 AUDIO
    TITLE "0:"
    INDEX 01 02:24:42
  TRACK 91 AUDIO
    TITLE "34:cjc123_2317"
    INDEX 01 02:24:65
  TRACK 92 AUDIO
    TITLE "0:"
    INDEX 01 02:25:72
  TRACK 93 AUDIO
    TITLE "35:cjc123_2318"
    INDEX 01 02:26:50
  TRACK 94 AUDIO
    TITLE "0:"
    INDEX 01 02:30:54
